<svg width="33" height="33" viewBox="0 0 33 33" fill="none" xmlns="http://www.w3.org/2000/svg">
<g clip-path="url(#clip0_935_2546)">
<path d="M21.409 27.35C21.409 29.9182 19.2112 32 16.4999 32C13.7888 32 11.591 29.9182 11.591 27.35M19.4398 7.56977C20.1522 6.87239 20.5908 5.92221 20.5908 4.875C20.5908 2.7349 18.7594 1 16.4999 1C14.2406 1 12.4092 2.7349 12.4092 4.875C12.4092 5.92221 12.8477 6.87239 13.5603 7.56977M1.03157 10.8006C1.00808 8.551 2.28848 6.45028 4.35692 5.34474M31.9684 10.8006C31.992 8.551 30.7116 6.45028 28.6431 5.34474M26.3179 15.26C26.3179 13.1223 25.2836 11.0723 23.4424 9.56071C21.6012 8.04918 19.1038 7.2 16.4999 7.2C13.8961 7.2 11.3989 8.04918 9.5577 9.56071C7.71647 11.0723 6.68209 13.1223 6.68209 15.26C6.68209 18.7968 5.75614 21.3834 4.60078 23.2343C3.28399 25.3437 2.62559 26.3985 2.65159 26.6503C2.68134 26.9386 2.73611 27.0296 2.98291 27.2006C3.19863 27.35 4.28243 27.35 6.45003 27.35H26.55C28.7175 27.35 29.8015 27.35 30.0171 27.2006C30.2639 27.0296 30.3186 26.9386 30.3484 26.6503C30.3744 26.3985 29.716 25.3437 28.3993 23.2343C27.2439 21.3834 26.3179 18.7968 26.3179 15.26Z" stroke="#00377D" stroke-width="2" stroke-linecap="round" stroke-linejoin="round"/>
</g>
<defs>
<clipPath id="clip0_935_2546">
<rect width="33" height="33" fill="white"/>
</clipPath>
</defs>
</svg>
