<svg width="33" height="33" viewBox="0 0 33 33" fill="none" xmlns="http://www.w3.org/2000/svg">
<path d="M2.75 7.15C2.75 5.60986 2.75 4.83978 3.04973 4.25153C3.31338 3.73408 3.73408 3.31338 4.25153 3.04973C4.83978 2.75 5.60986 2.75 7.15 2.75H17.6C19.1401 2.75 19.9102 2.75 20.4985 3.04973C21.0159 3.31338 21.4366 3.73408 21.7003 4.25153C22 4.83978 22 5.60986 22 7.15V17.6C22 19.1401 22 19.9102 21.7003 20.4985C21.4366 21.0159 21.0159 21.4366 20.4985 21.7003C19.9102 22 19.1401 22 17.6 22H7.15C5.60986 22 4.83978 22 4.25153 21.7003C3.73408 21.4366 3.31338 21.0159 3.04973 20.4985C2.75 19.9102 2.75 19.1401 2.75 17.6V7.15Z" stroke="white" stroke-width="2" stroke-linecap="round" stroke-linejoin="round"/>
<path d="M11 15.4C11 13.8599 11 13.0898 11.2997 12.5015C11.5634 11.9841 11.9841 11.5634 12.5015 11.2997C13.0898 11 13.8599 11 15.4 11H25.85C27.3901 11 28.1602 11 28.7485 11.2997C29.2659 11.5634 29.6866 11.9841 29.9503 12.5015C30.25 13.0898 30.25 13.8599 30.25 15.4V25.85C30.25 27.3901 30.25 28.1602 29.9503 28.7485C29.6866 29.2659 29.2659 29.6866 28.7485 29.9503C28.1602 30.25 27.3901 30.25 25.85 30.25H15.4C13.8599 30.25 13.0898 30.25 12.5015 29.9503C11.9841 29.6866 11.5634 29.2659 11.2997 28.7485C11 28.1602 11 27.3901 11 25.85V15.4Z" stroke="white" stroke-width="2" stroke-linecap="round" stroke-linejoin="round"/>
</svg>
