<svg width="30" height="31" viewBox="0 0 30 31" fill="none" xmlns="http://www.w3.org/2000/svg">
<path d="M14.1765 1H8.90588C6.13856 1 4.7549 1 3.69793 1.5431C2.76818 2.02083 2.01228 2.78312 1.53856 3.72071C1 4.78661 1 6.18195 1 8.97265V17.6097C1 19.1544 1 19.9267 1.16836 20.5604C1.62526 22.2798 2.95715 23.623 4.6623 24.0838C5.29065 24.2535 6.05652 24.2535 7.58824 24.2535V28.1327C7.58824 29.0179 7.58824 29.4604 7.76814 29.6876C7.9246 29.8852 8.16186 30.0003 8.41265 30C8.70104 29.9997 9.04369 29.7233 9.72902 29.1703L13.658 26.0006C14.4606 25.3531 14.862 25.0294 15.3088 24.7992C15.7053 24.5949 16.1272 24.4456 16.5634 24.3554C17.055 24.2535 17.5689 24.2535 18.5967 24.2535H21.0941C23.8615 24.2535 25.245 24.2535 26.3021 23.7104C27.2319 23.2327 27.9877 22.4705 28.4614 21.5329C29 20.4669 29 19.0717 29 16.2809V15.9487" stroke="#015892" stroke-width="2" stroke-linecap="round" stroke-linejoin="round"/>
</svg>
