<svg width="32" height="32" viewBox="0 0 32 32" fill="none" xmlns="http://www.w3.org/2000/svg">
<path d="M6.66667 12V22.6667M12.6667 12V22.6667M19.3333 12V22.6667M25.3333 12V22.6667M4 24.8V25.8667C4 26.6135 4 26.9868 4.14532 27.272C4.27316 27.5229 4.47713 27.7269 4.72801 27.8547C5.01323 28 5.3866 28 6.13333 28H25.8667C26.6135 28 26.9868 28 27.272 27.8547C27.5229 27.7269 27.7268 27.5229 27.8547 27.272C28 26.9868 28 26.6135 28 25.8667V24.8C28 24.0533 28 23.6799 27.8547 23.3947C27.7268 23.1439 27.5229 22.9399 27.272 22.812C26.9868 22.6667 26.6135 22.6667 25.8667 22.6667H6.13333C5.3866 22.6667 5.01323 22.6667 4.72801 22.812C4.47713 22.9399 4.27316 23.1439 4.14532 23.3947C4 23.6799 4 24.0533 4 24.8ZM15.5372 4.10288L5.67055 6.29548C5.07447 6.42793 4.77643 6.49417 4.55395 6.65444C4.35772 6.79581 4.20364 6.9879 4.1082 7.21013C4 7.46206 4 7.76738 4 8.378V9.8667C4 10.6134 4 10.9868 4.14532 11.272C4.27316 11.5229 4.47713 11.7269 4.72801 11.8547C5.01323 12 5.3866 12 6.13333 12H25.8667C26.6135 12 26.9868 12 27.272 11.8547C27.5229 11.7269 27.7268 11.5229 27.8547 11.272C28 10.9868 28 10.6134 28 9.8667V8.37801C28 7.76738 28 7.46208 27.8917 7.21013C27.7964 6.9879 27.6423 6.79581 27.446 6.65444C27.2236 6.49417 26.9256 6.42793 26.3295 6.29548L16.4628 4.10288C16.2901 4.0645 16.2037 4.04532 16.1165 4.03766C16.0389 4.03086 15.9611 4.03086 15.8835 4.03766C15.7963 4.04532 15.7099 4.0645 15.5372 4.10288Z" stroke="#015892" stroke-width="2" stroke-linecap="round" stroke-linejoin="round"/>
</svg>
