<svg width="32" height="32" viewBox="0 0 32 32" fill="none" xmlns="http://www.w3.org/2000/svg">
<path d="M18.0393 11.1358C17.2761 11.6799 16.3421 12 15.3333 12C12.756 12 10.6666 9.91066 10.6666 7.33332C10.6666 4.75599 12.756 2.66666 15.3333 2.66666C17.004 2.66666 18.4696 3.54455 19.294 4.86418M7.99996 26.7829H11.4803C11.9341 26.7829 12.3851 26.8369 12.825 26.9448L16.5025 27.8385C17.3004 28.0329 18.1317 28.0517 18.938 27.8952L23.004 27.1041C24.078 26.8949 25.0661 26.3805 25.8404 25.6273L28.7172 22.8289C29.5386 22.0312 29.5386 20.7365 28.7172 19.9375C27.9776 19.2179 26.8062 19.1369 25.9694 19.7471L22.6168 22.1932C22.1366 22.5441 21.5524 22.7331 20.9516 22.7331H17.714H19.7748C20.9362 22.7331 21.8772 21.8177 21.8772 20.6879V20.2788C21.8772 19.3407 21.2208 18.5227 20.2854 18.2959L17.1048 17.5223C16.5872 17.3968 16.057 17.3333 15.5241 17.3333C14.2377 17.3333 11.9091 18.3984 11.9091 18.3984L7.99996 20.0332M26.6666 8.66666C26.6666 11.244 24.5773 13.3333 22 13.3333C19.4226 13.3333 17.3333 11.244 17.3333 8.66666C17.3333 6.08932 19.4226 3.99999 22 3.99999C24.5773 3.99999 26.6666 6.08932 26.6666 8.66666ZM2.66663 19.4667V27.2C2.66663 27.9468 2.66663 28.3201 2.81195 28.6053C2.93979 28.8563 3.14376 29.0601 3.39464 29.188C3.67985 29.3333 4.05323 29.3333 4.79996 29.3333H5.86663C6.61336 29.3333 6.98673 29.3333 7.27195 29.188C7.52283 29.0601 7.7268 28.8563 7.85464 28.6053C7.99996 28.3201 7.99996 27.9468 7.99996 27.2V19.4667C7.99996 18.7199 7.99996 18.3465 7.85464 18.0613C7.7268 17.8104 7.52283 17.6065 7.27195 17.4787C6.98673 17.3333 6.61336 17.3333 5.86663 17.3333H4.79996C4.05323 17.3333 3.67985 17.3333 3.39464 17.4787C3.14376 17.6065 2.93979 17.8104 2.81195 18.0613C2.66663 18.3465 2.66663 18.7199 2.66663 19.4667Z" stroke="#015892" stroke-width="2" stroke-linecap="round" stroke-linejoin="round"/>
</svg>
