<svg width="32" height="32" viewBox="0 0 32 32" fill="none" xmlns="http://www.w3.org/2000/svg">
<path d="M18.0392 11.1359C17.276 11.68 16.342 12.0001 15.3332 12.0001C12.7559 12.0001 10.6665 9.91075 10.6665 7.33341C10.6665 4.75608 12.7559 2.66675 15.3332 2.66675C17.0039 2.66675 18.4695 3.54464 19.2939 4.86427M7.99983 26.783H11.4802C11.934 26.783 12.385 26.837 12.8249 26.9449L16.5024 27.8386C17.3003 28.033 18.1316 28.0518 18.9379 27.8953L23.0039 27.1042C24.0779 26.895 25.066 26.3806 25.8403 25.6274L28.7171 22.829C29.5385 22.0313 29.5385 20.7366 28.7171 19.9376C27.9775 19.218 26.8061 19.137 25.9693 19.7472L22.6167 22.1933C22.1365 22.5442 21.5523 22.7332 20.9515 22.7332H17.7139H19.7747C20.9361 22.7332 21.8771 21.8178 21.8771 20.688V20.2789C21.8771 19.3408 21.2207 18.5228 20.2853 18.296L17.1047 17.5224C16.5871 17.3969 16.0569 17.3334 15.524 17.3334C14.2376 17.3334 11.909 18.3985 11.909 18.3985L7.99983 20.0333M26.6665 8.66675C26.6665 11.2441 24.5772 13.3334 21.9999 13.3334C19.4225 13.3334 17.3332 11.2441 17.3332 8.66675C17.3332 6.08941 19.4225 4.00008 21.9999 4.00008C24.5772 4.00008 26.6665 6.08941 26.6665 8.66675ZM2.6665 19.4668V27.2001C2.6665 27.9469 2.6665 28.3202 2.81182 28.6054C2.93966 28.8564 3.14363 29.0602 3.39451 29.1881C3.67972 29.3334 4.0531 29.3334 4.79983 29.3334H5.8665C6.61323 29.3334 6.9866 29.3334 7.27182 29.1881C7.5227 29.0602 7.72667 28.8564 7.85451 28.6054C7.99983 28.3202 7.99983 27.9469 7.99983 27.2001V19.4668C7.99983 18.72 7.99983 18.3466 7.85451 18.0614C7.72667 17.8105 7.5227 17.6066 7.27182 17.4788C6.9866 17.3334 6.61323 17.3334 5.8665 17.3334H4.79983C4.0531 17.3334 3.67972 17.3334 3.39451 17.4788C3.14363 17.6066 2.93966 17.8105 2.81182 18.0614C2.6665 18.3466 2.6665 18.72 2.6665 19.4668Z" stroke="black" stroke-width="2" stroke-linecap="round" stroke-linejoin="round"/>
</svg>
