<svg width="32" height="32" viewBox="0 0 32 32" fill="none" xmlns="http://www.w3.org/2000/svg">
<path d="M14.6666 5.33331H9.06663C6.82641 5.33331 5.70631 5.33331 4.85067 5.76928C4.09801 6.15277 3.48609 6.76471 3.1026 7.51735C2.66663 8.373 2.66663 9.49311 2.66663 11.7333V22.9333C2.66663 25.1735 2.66663 26.2936 3.1026 27.1493C3.48609 27.9019 4.09801 28.5139 4.85067 28.8973C5.70631 29.3333 6.82641 29.3333 9.06663 29.3333H20.2666C22.5069 29.3333 23.6269 29.3333 24.4826 28.8973C25.2353 28.5139 25.8472 27.9019 26.2306 27.1493C26.6666 26.2936 26.6666 25.1735 26.6666 22.9333V17.3333M10.6666 21.3333H12.8993C13.5516 21.3333 13.8777 21.3333 14.1846 21.2596C14.4566 21.1943 14.7168 21.0865 14.9554 20.9404C15.2245 20.7755 15.4552 20.5448 15.9164 20.0836L28.6666 7.33331C29.7712 6.22875 29.7712 4.43788 28.6666 3.33331C27.5621 2.22875 25.7712 2.22873 24.6666 3.33331L11.9163 16.0836C11.4551 16.5448 11.2245 16.7755 11.0595 17.0445C10.9133 17.2832 10.8056 17.5432 10.7403 17.8153C10.6666 18.1223 10.6666 18.4484 10.6666 19.1007V21.3333Z" stroke="#015892" stroke-width="2" stroke-linecap="round" stroke-linejoin="round"/>
</svg>
