<svg width="32" height="32" viewBox="0 0 32 32" fill="none" xmlns="http://www.w3.org/2000/svg">
<path d="M14.6665 5.33331H9.0665C6.82628 5.33331 5.70618 5.33331 4.85054 5.76928C4.09788 6.15277 3.48596 6.76471 3.10247 7.51735C2.6665 8.373 2.6665 9.49311 2.6665 11.7333V22.9333C2.6665 25.1735 2.6665 26.2936 3.10247 27.1493C3.48596 27.9019 4.09788 28.5139 4.85054 28.8973C5.70618 29.3333 6.82628 29.3333 9.0665 29.3333H20.2665C22.5068 29.3333 23.6268 29.3333 24.4825 28.8973C25.2352 28.5139 25.8471 27.9019 26.2305 27.1493C26.6665 26.2936 26.6665 25.1735 26.6665 22.9333V17.3333M10.6665 21.3333H12.8992C13.5515 21.3333 13.8776 21.3333 14.1845 21.2596C14.4565 21.1943 14.7167 21.0865 14.9553 20.9404C15.2244 20.7755 15.4551 20.5448 15.9163 20.0836L28.6665 7.33331C29.7711 6.22875 29.7711 4.43788 28.6665 3.33331C27.562 2.22875 25.7711 2.22873 24.6665 3.33331L11.9162 16.0836C11.455 16.5448 11.2244 16.7755 11.0594 17.0445C10.9132 17.2832 10.8055 17.5432 10.7402 17.8153C10.6665 18.1223 10.6665 18.4484 10.6665 19.1007V21.3333Z" stroke="black" stroke-width="2" stroke-linecap="round" stroke-linejoin="round"/>
</svg>
