<svg width="32" height="32" viewBox="0 0 32 32" fill="none" xmlns="http://www.w3.org/2000/svg">
<path d="M22.6666 19.3334V15.326C22.6666 15.0866 22.6666 14.967 22.6302 14.8613C22.598 14.768 22.5454 14.6829 22.4762 14.6122C22.3981 14.5324 22.291 14.4789 22.077 14.372L16 11.3334M5.33329 12.6667V21.7422C5.33329 22.2381 5.33329 22.486 5.41065 22.7032C5.47904 22.895 5.59049 23.0688 5.73647 23.2109C5.90159 23.3716 6.12699 23.4749 6.57776 23.6816L15.1112 27.5926C15.4381 27.7425 15.6016 27.8174 15.7718 27.847C15.9228 27.8732 16.0772 27.8732 16.2281 27.847C16.3984 27.8174 16.5618 27.7425 16.8888 27.5926L25.4221 23.6816C25.8729 23.4749 26.0984 23.3716 26.2634 23.2109C26.4094 23.0688 26.5209 22.895 26.5893 22.7032C26.6666 22.486 26.6666 22.2381 26.6666 21.7422V12.6667M2.66663 11.3334L15.5229 4.90525C15.6978 4.8178 15.7853 4.77406 15.877 4.75686C15.9582 4.74161 16.0417 4.74161 16.1229 4.75686C16.2146 4.77406 16.3021 4.8178 16.477 4.90525L29.3333 11.3334L16.477 17.7616C16.3021 17.849 16.2146 17.8928 16.1229 17.91C16.0417 17.9252 15.9582 17.9252 15.877 17.91C15.7853 17.8928 15.6978 17.849 15.5229 17.7616L2.66663 11.3334Z" stroke="#015892" stroke-width="2" stroke-linecap="round" stroke-linejoin="round"/>
</svg>
