<svg width="32" height="32" viewBox="0 0 32 32" fill="none" xmlns="http://www.w3.org/2000/svg">
<path d="M22.6665 19.3333V15.3259C22.6665 15.0865 22.6665 14.9669 22.6301 14.8612C22.5979 14.7679 22.5453 14.6828 22.4761 14.6121C22.398 14.5323 22.2909 14.4788 22.0769 14.3719L15.9999 11.3333M5.33316 12.6666V21.7421C5.33316 22.238 5.33316 22.4859 5.41052 22.7031C5.47891 22.8949 5.59036 23.0687 5.73634 23.2108C5.90146 23.3715 6.12686 23.4748 6.57763 23.6815L15.1111 27.5925C15.438 27.7424 15.6015 27.8173 15.7717 27.8469C15.9227 27.8731 16.0771 27.8731 16.228 27.8469C16.3983 27.8173 16.5617 27.7424 16.8887 27.5925L25.422 23.6815C25.8728 23.4748 26.0983 23.3715 26.2633 23.2108C26.4093 23.0687 26.5208 22.8949 26.5892 22.7031C26.6665 22.4859 26.6665 22.238 26.6665 21.7421V12.6666M2.6665 11.3333L15.5228 4.90519C15.6977 4.81774 15.7852 4.774 15.8769 4.7568C15.9581 4.74155 16.0416 4.74155 16.1228 4.7568C16.2145 4.774 16.302 4.81774 16.4769 4.90519L29.3332 11.3333L16.4769 17.7615C16.302 17.8489 16.2145 17.8927 16.1228 17.9099C16.0416 17.9251 15.9581 17.9251 15.8769 17.9099C15.7852 17.8927 15.6977 17.8489 15.5228 17.7615L2.6665 11.3333Z" stroke="black" stroke-width="2" stroke-linecap="round" stroke-linejoin="round"/>
</svg>
