<svg width="29" height="32" viewBox="0 0 29 32" fill="none" xmlns="http://www.w3.org/2000/svg">
<g clip-path="url(#clip0_63_40)">
<path d="M14.4 20.8C9.32784 20.8 4.81723 23.2489 1.94555 27.0496C1.32748 27.8675 1.01845 28.2765 1.02856 28.8293C1.03637 29.2563 1.30453 29.795 1.64054 30.0587C2.07546 30.4 2.67814 30.4 3.88352 30.4H24.9163C26.1218 30.4 26.7245 30.4 27.1594 30.0587C27.4954 29.795 27.7635 29.2563 27.7714 28.8293C27.7814 28.2765 27.4725 27.8675 26.8544 27.0496C23.9827 23.2489 19.472 20.8 14.4 20.8Z" stroke="#015892" stroke-width="2" stroke-linecap="round" stroke-linejoin="round"/>
<path d="M14.4 16C18.3765 16 21.6 12.7765 21.6 8.80001C21.6 4.82356 18.3765 1.60001 14.4 1.60001C10.4235 1.60001 7.19995 4.82356 7.19995 8.80001C7.19995 12.7765 10.4235 16 14.4 16Z" stroke="#015892" stroke-width="2" stroke-linecap="round" stroke-linejoin="round"/>
</g>
<defs>
<clipPath id="clip0_63_40">
<rect width="28.8" height="32" fill="white"/>
</clipPath>
</defs>
</svg>
