<svg width="29" height="32" viewBox="0 0 29 32" fill="none" xmlns="http://www.w3.org/2000/svg">
<g clip-path="url(#clip0_1102_2560)">
<mask id="mask0_1102_2560" style="mask-type:luminance" maskUnits="userSpaceOnUse" x="0" y="0" width="29" height="32">
<path d="M28.8 0H0V32H28.8V0Z" fill="white"/>
</mask>
<g mask="url(#mask0_1102_2560)">
<path d="M14.4 20.8C9.32784 20.8 4.81723 23.249 1.94555 27.0497C1.32748 27.8676 1.01845 28.2765 1.02856 28.8293C1.03637 29.2563 1.30453 29.7951 1.64054 30.0588C2.07546 30.4001 2.67814 30.4 3.88352 30.4H24.9163C26.1218 30.4 26.7245 30.4001 27.1594 30.0588C27.4954 29.7951 27.7635 29.2563 27.7714 28.8293C27.7814 28.2765 27.4725 27.8676 26.8544 27.0497C23.9827 23.249 19.472 20.8 14.4 20.8Z" stroke="black" stroke-width="2" stroke-linecap="round" stroke-linejoin="round"/>
<path d="M14.3998 16.0001C18.3763 16.0001 21.5998 12.7766 21.5998 8.8001C21.5998 4.82365 18.3763 1.6001 14.3998 1.6001C10.4233 1.6001 7.19971 4.82365 7.19971 8.8001C7.19971 12.7766 10.4233 16.0001 14.3998 16.0001Z" stroke="black" stroke-width="2" stroke-linecap="round" stroke-linejoin="round"/>
</g>
</g>
<defs>
<clipPath id="clip0_1102_2560">
<rect width="29" height="32" fill="white"/>
</clipPath>
</defs>
</svg>
