<svg width="34" height="49" viewBox="0 0 34 49" fill="none" xmlns="http://www.w3.org/2000/svg">
<path d="M17.0001 21.9583H10.6251C8.64813 21.9583 7.65959 21.9583 6.85522 22.2023C5.04414 22.7517 3.62689 24.169 3.07751 25.9801C2.8335 26.7845 2.8335 27.7729 2.8335 29.75M20.5418 10.625C20.5418 14.1458 17.6876 17 14.1668 17C10.646 17 7.79184 14.1458 7.79184 10.625C7.79184 7.10419 10.646 4.25 14.1668 4.25C17.6876 4.25 20.5418 7.10419 20.5418 10.625Z" stroke="black" stroke-width="2" stroke-linecap="round" stroke-linejoin="round"/>
<path d="M30.25 25.625L19.4307 36.4443C18.8862 36.9888 18.6138 37.2612 18.2999 37.3631C18.0238 37.4529 17.7262 37.4529 17.4501 37.3631C17.1362 37.2612 16.8638 36.9888 16.3193 36.4443L12.5556 32.6807C12.0111 32.1362 11.7389 31.8638 11.4249 31.7619C11.1487 31.6721 10.8513 31.6721 10.5751 31.7619C10.2611 31.8638 9.98889 32.1362 9.44437 32.6807L2.75 39.375M30.25 25.625H20.625M30.25 25.625V35.25" stroke="black" stroke-width="2" stroke-linecap="round" stroke-linejoin="round"/>
</svg>
