<svg width="39" height="39" viewBox="0 0 39 39" fill="none" xmlns="http://www.w3.org/2000/svg">
<path d="M12.1875 17.875H7.475C6.56491 17.875 6.10987 17.875 5.76227 18.0521C5.4565 18.2079 5.20791 18.4565 5.05211 18.7623C4.875 19.1099 4.875 19.5649 4.875 20.475V34.125M26.8125 17.875H31.525C32.4351 17.875 32.8901 17.875 33.2377 18.0521C33.5435 18.2079 33.7921 18.4565 33.9479 18.7623C34.125 19.1099 34.125 19.5649 34.125 20.475V34.125M26.8125 34.125V10.075C26.8125 8.25483 26.8125 7.34474 26.4583 6.64953C26.1467 6.038 25.6495 5.54082 25.038 5.22923C24.3428 4.875 23.4327 4.875 21.6125 4.875H17.3875C15.5673 4.875 14.6572 4.875 13.962 5.22923C13.3505 5.54082 12.8533 6.038 12.5417 6.64953C12.1875 7.34474 12.1875 8.25483 12.1875 10.075V34.125M35.75 34.125H3.25M17.875 11.375H21.125M17.875 17.875H21.125M17.875 24.375H21.125" stroke="#00377D" stroke-width="2" stroke-linecap="round" stroke-linejoin="round"/>
</svg>
