<svg width="42" height="63" viewBox="0 0 42 63" fill="none" xmlns="http://www.w3.org/2000/svg">
<path d="M35.25 36.75L40.5 31.5M40.5 31.5L35.25 26.25M40.5 31.5H30M30.125 5.75882C32.6903 6.79726 34.5 9.31229 34.5 12.25C34.5 15.1877 32.6903 17.7028 30.125 18.7412M24 26.25H17C13.7384 26.25 12.1076 26.25 10.8212 26.7829C9.10602 27.4933 7.7433 28.856 7.03284 30.5713C6.5 31.8576 6.5 33.4884 6.5 36.75M26.625 12.25C26.625 16.116 23.491 19.25 19.625 19.25C15.759 19.25 12.625 16.116 12.625 12.25C12.625 8.38401 15.759 5.25 19.625 5.25C23.491 5.25 26.625 8.38401 26.625 12.25Z" stroke="black" stroke-width="2" stroke-linecap="round" stroke-linejoin="round"/>
<path d="M10.0759 56.0001H15.8923V54.0064H10.0759V56.0001ZM10.0759 46.46H15.8923V44.4662H10.0759V46.46ZM10.0759 50.8593H15.5628V48.8985H10.0759V50.8593ZM8.56006 44.4662V56.0001H10.8339V44.4662H8.56006ZM19.2196 52.128L17.5389 53.3144C17.7916 53.8526 18.1431 54.3524 18.5934 54.8138C19.0438 55.2751 19.5711 55.6431 20.1752 55.9177C20.7904 56.1813 21.4494 56.3132 22.1524 56.3132C22.6797 56.3132 23.1795 56.2308 23.6518 56.066C24.1352 55.9122 24.5691 55.687 24.9535 55.3904C25.338 55.0829 25.6401 54.7094 25.8598 54.27C26.0794 53.8306 26.1893 53.3308 26.1893 52.7706C26.1893 52.2763 26.1069 51.8424 25.9421 51.4689C25.7884 51.0845 25.5687 50.7549 25.2831 50.4803C25.0084 50.1947 24.6954 49.9531 24.3439 49.7553C24.0034 49.5576 23.6464 49.3928 23.2729 49.261C22.6907 49.0633 22.2074 48.8711 21.8229 48.6843C21.4384 48.4866 21.1528 48.2834 20.9661 48.0747C20.7794 47.855 20.686 47.6024 20.686 47.3168C20.686 47.0312 20.8013 46.784 21.032 46.5753C21.2627 46.3556 21.6087 46.2458 22.0701 46.2458C22.4216 46.2458 22.7346 46.3172 23.0092 46.46C23.2839 46.5918 23.5255 46.773 23.7342 47.0037C23.9539 47.2234 24.1407 47.4705 24.2944 47.7452L26.1399 46.7236C25.9421 46.3172 25.662 45.9272 25.2995 45.5537C24.948 45.1693 24.5032 44.8562 23.9649 44.6145C23.4376 44.3619 22.806 44.2356 22.0701 44.2356C21.3561 44.2356 20.708 44.3674 20.1258 44.631C19.5546 44.8837 19.0987 45.2517 18.7582 45.735C18.4287 46.2073 18.2639 46.773 18.2639 47.4321C18.2639 47.9813 18.3682 48.4537 18.577 48.8491C18.7857 49.2336 19.0493 49.5631 19.3678 49.8377C19.6864 50.1014 20.0214 50.321 20.3729 50.4968C20.7354 50.6616 21.054 50.7934 21.3286 50.8922C21.8449 51.09 22.2788 51.2767 22.6303 51.4525C22.9928 51.6172 23.2619 51.8095 23.4376 52.0292C23.6244 52.2488 23.7178 52.5399 23.7178 52.9024C23.7178 53.3198 23.5695 53.6494 23.2729 53.891C22.9763 54.1327 22.5918 54.2535 22.1195 54.2535C21.7131 54.2535 21.3341 54.1657 20.9826 53.9899C20.6311 53.8142 20.307 53.567 20.0104 53.2484C19.7248 52.9299 19.4612 52.5564 19.2196 52.128ZM29.1154 52.128L27.4348 53.3144C27.6874 53.8526 28.0389 54.3524 28.4893 54.8138C28.9396 55.2751 29.4669 55.6431 30.0711 55.9177C30.6862 56.1813 31.3453 56.3132 32.0483 56.3132C32.5756 56.3132 33.0754 56.2308 33.5477 56.066C34.031 55.9122 34.4649 55.687 34.8494 55.3904C35.2338 55.0829 35.5359 54.7094 35.7556 54.27C35.9753 53.8306 36.0851 53.3308 36.0851 52.7706C36.0851 52.2763 36.0028 51.8424 35.838 51.4689C35.6842 51.0845 35.4645 50.7549 35.1789 50.4803C34.9043 50.1947 34.5912 49.9531 34.2397 49.7553C33.8992 49.5576 33.5422 49.3928 33.1687 49.261C32.5865 49.0633 32.1032 48.8711 31.7188 48.6843C31.3343 48.4866 31.0487 48.2834 30.862 48.0747C30.6752 47.855 30.5818 47.6024 30.5818 47.3168C30.5818 47.0312 30.6972 46.784 30.9279 46.5753C31.1585 46.3556 31.5046 46.2458 31.9659 46.2458C32.3174 46.2458 32.6305 46.3172 32.9051 46.46C33.1797 46.5918 33.4214 46.773 33.6301 47.0037C33.8498 47.2234 34.0365 47.4705 34.1903 47.7452L36.0357 46.7236C35.838 46.3172 35.5579 45.9272 35.1954 45.5537C34.8439 45.1693 34.399 44.8562 33.8608 44.6145C33.3335 44.3619 32.7019 44.2356 31.9659 44.2356C31.2519 44.2356 30.6038 44.3674 30.0216 44.631C29.4504 44.8837 28.9946 45.2517 28.654 45.735C28.3245 46.2073 28.1597 46.773 28.1597 47.4321C28.1597 47.9813 28.2641 48.4537 28.4728 48.8491C28.6815 49.2336 28.9451 49.5631 29.2637 49.8377C29.5822 50.1014 29.9173 50.321 30.2688 50.4968C30.6313 50.6616 30.9498 50.7934 31.2244 50.8922C31.7407 51.09 32.1746 51.2767 32.5261 51.4525C32.8886 51.6172 33.1577 51.8095 33.3335 52.0292C33.5202 52.2488 33.6136 52.5399 33.6136 52.9024C33.6136 53.3198 33.4653 53.6494 33.1687 53.891C32.8721 54.1327 32.4877 54.2535 32.0153 54.2535C31.6089 54.2535 31.2299 54.1657 30.8784 53.9899C30.5269 53.8142 30.2029 53.567 29.9063 53.2484C29.6207 52.9299 29.3571 52.5564 29.1154 52.128Z" fill="black"/>
</svg>
