<svg width="42" height="63" viewBox="0 0 42 63" fill="none" xmlns="http://www.w3.org/2000/svg">
<path d="M35.25 36.75L40.5 31.5M40.5 31.5L35.25 26.25M40.5 31.5H30M30.125 5.75882C32.6903 6.79726 34.5 9.31229 34.5 12.25C34.5 15.1877 32.6903 17.7028 30.125 18.7412M24 26.25H17C13.7384 26.25 12.1076 26.25 10.8212 26.7829C9.10602 27.4933 7.7433 28.856 7.03284 30.5713C6.5 31.8576 6.5 33.4884 6.5 36.75M26.625 12.25C26.625 16.116 23.491 19.25 19.625 19.25C15.759 19.25 12.625 16.116 12.625 12.25C12.625 8.38401 15.759 5.25 19.625 5.25C23.491 5.25 26.625 8.38401 26.625 12.25Z" stroke="#00377D" stroke-width="2" stroke-linecap="round" stroke-linejoin="round"/>
<path d="M10.0759 56H15.8923V54.0063H10.0759V56ZM10.0759 46.4599H15.8923V44.4661H10.0759V46.4599ZM10.0759 50.8592H15.5628V48.8984H10.0759V50.8592ZM8.56006 44.4661V56H10.8339V44.4661H8.56006ZM19.2196 52.1279L17.5389 53.3143C17.7916 53.8525 18.1431 54.3523 18.5934 54.8137C19.0438 55.275 19.5711 55.643 20.1752 55.9176C20.7904 56.1812 21.4494 56.3131 22.1524 56.3131C22.6797 56.3131 23.1795 56.2307 23.6518 56.0659C24.1352 55.9121 24.5691 55.6869 24.9535 55.3903C25.338 55.0828 25.6401 54.7093 25.8598 54.2699C26.0794 53.8305 26.1893 53.3307 26.1893 52.7705C26.1893 52.2762 26.1069 51.8423 25.9421 51.4688C25.7884 51.0844 25.5687 50.7548 25.2831 50.4802C25.0084 50.1946 24.6954 49.953 24.3439 49.7552C24.0034 49.5575 23.6464 49.3927 23.2729 49.2609C22.6907 49.0632 22.2074 48.871 21.8229 48.6842C21.4384 48.4865 21.1528 48.2833 20.9661 48.0746C20.7794 47.8549 20.686 47.6023 20.686 47.3167C20.686 47.0311 20.8013 46.7839 21.032 46.5752C21.2627 46.3555 21.6087 46.2457 22.0701 46.2457C22.4216 46.2457 22.7346 46.3171 23.0092 46.4599C23.2839 46.5917 23.5255 46.7729 23.7342 47.0036C23.9539 47.2233 24.1407 47.4704 24.2944 47.7451L26.1399 46.7235C25.9421 46.3171 25.662 45.9271 25.2995 45.5536C24.948 45.1692 24.5032 44.8561 23.9649 44.6144C23.4376 44.3618 22.806 44.2355 22.0701 44.2355C21.3561 44.2355 20.708 44.3673 20.1258 44.6309C19.5546 44.8836 19.0987 45.2516 18.7582 45.7349C18.4287 46.2072 18.2639 46.7729 18.2639 47.432C18.2639 47.9812 18.3682 48.4536 18.577 48.849C18.7857 49.2335 19.0493 49.563 19.3678 49.8376C19.6864 50.1013 20.0214 50.3209 20.3729 50.4967C20.7354 50.6615 21.054 50.7933 21.3286 50.8921C21.8449 51.0899 22.2788 51.2766 22.6303 51.4524C22.9928 51.6171 23.2619 51.8094 23.4376 52.0291C23.6244 52.2487 23.7178 52.5398 23.7178 52.9023C23.7178 53.3197 23.5695 53.6493 23.2729 53.8909C22.9763 54.1326 22.5918 54.2534 22.1195 54.2534C21.7131 54.2534 21.3341 54.1656 20.9826 53.9898C20.6311 53.8141 20.307 53.5669 20.0104 53.2483C19.7248 52.9298 19.4612 52.5563 19.2196 52.1279ZM29.1154 52.1279L27.4348 53.3143C27.6874 53.8525 28.0389 54.3523 28.4893 54.8137C28.9396 55.275 29.4669 55.643 30.0711 55.9176C30.6862 56.1812 31.3453 56.3131 32.0483 56.3131C32.5756 56.3131 33.0754 56.2307 33.5477 56.0659C34.031 55.9121 34.4649 55.6869 34.8494 55.3903C35.2338 55.0828 35.5359 54.7093 35.7556 54.2699C35.9753 53.8305 36.0851 53.3307 36.0851 52.7705C36.0851 52.2762 36.0028 51.8423 35.838 51.4688C35.6842 51.0844 35.4645 50.7548 35.1789 50.4802C34.9043 50.1946 34.5912 49.953 34.2397 49.7552C33.8992 49.5575 33.5422 49.3927 33.1687 49.2609C32.5865 49.0632 32.1032 48.871 31.7188 48.6842C31.3343 48.4865 31.0487 48.2833 30.862 48.0746C30.6752 47.8549 30.5818 47.6023 30.5818 47.3167C30.5818 47.0311 30.6972 46.7839 30.9279 46.5752C31.1585 46.3555 31.5046 46.2457 31.9659 46.2457C32.3174 46.2457 32.6305 46.3171 32.9051 46.4599C33.1797 46.5917 33.4214 46.7729 33.6301 47.0036C33.8498 47.2233 34.0365 47.4704 34.1903 47.7451L36.0357 46.7235C35.838 46.3171 35.5579 45.9271 35.1954 45.5536C34.8439 45.1692 34.399 44.8561 33.8608 44.6144C33.3335 44.3618 32.7019 44.2355 31.9659 44.2355C31.2519 44.2355 30.6038 44.3673 30.0216 44.6309C29.4504 44.8836 28.9946 45.2516 28.654 45.7349C28.3245 46.2072 28.1597 46.7729 28.1597 47.432C28.1597 47.9812 28.2641 48.4536 28.4728 48.849C28.6815 49.2335 28.9451 49.563 29.2637 49.8376C29.5822 50.1013 29.9173 50.3209 30.2688 50.4967C30.6313 50.6615 30.9498 50.7933 31.2244 50.8921C31.7407 51.0899 32.1746 51.2766 32.5261 51.4524C32.8886 51.6171 33.1577 51.8094 33.3335 52.0291C33.5202 52.2487 33.6136 52.5398 33.6136 52.9023C33.6136 53.3197 33.4653 53.6493 33.1687 53.8909C32.8721 54.1326 32.4877 54.2534 32.0153 54.2534C31.6089 54.2534 31.2299 54.1656 30.8784 53.9898C30.5269 53.8141 30.2029 53.5669 29.9063 53.2483C29.6207 52.9298 29.3571 52.5563 29.1154 52.1279Z" fill="#00377D"/>
</svg>
