<svg width="42" height="63" viewBox="0 0 42 63" fill="none" xmlns="http://www.w3.org/2000/svg">
<path d="M33.25 36.75L38.5 31.5M38.5 31.5L33.25 26.25M38.5 31.5H28M27.125 5.75882C29.6903 6.79726 31.5 9.31229 31.5 12.25C31.5 15.1877 29.6903 17.7028 27.125 18.7412M21 26.25H14C10.7384 26.25 9.10761 26.25 7.82122 26.7829C6.10602 27.4933 4.7433 28.856 4.03284 30.5713C3.5 31.8576 3.5 33.4884 3.5 36.75M23.625 12.25C23.625 16.116 20.491 19.25 16.625 19.25C12.759 19.25 9.625 16.116 9.625 12.25C9.625 8.38401 12.759 5.25 16.625 5.25C20.491 5.25 23.625 8.38401 23.625 12.25Z" stroke="#00377D" stroke-width="2" stroke-linecap="round" stroke-linejoin="round"/>
<path d="M7.07594 56H12.8923V54.0063H7.07594V56ZM7.07594 46.4599H12.8923V44.4661H7.07594V46.4599ZM7.07594 50.8592H12.5628V48.8984H7.07594V50.8592ZM5.56006 44.4661V56H7.83387V44.4661H5.56006ZM16.2196 52.1279L14.5389 53.3143C14.7916 53.8525 15.1431 54.3523 15.5934 54.8137C16.0438 55.275 16.5711 55.643 17.1752 55.9176C17.7904 56.1812 18.4494 56.3131 19.1524 56.3131C19.6797 56.3131 20.1795 56.2307 20.6518 56.0659C21.1352 55.9121 21.5691 55.6869 21.9535 55.3903C22.338 55.0828 22.6401 54.7093 22.8598 54.2699C23.0794 53.8305 23.1893 53.3307 23.1893 52.7705C23.1893 52.2762 23.1069 51.8423 22.9421 51.4688C22.7884 51.0844 22.5687 50.7548 22.2831 50.4802C22.0084 50.1946 21.6954 49.953 21.3439 49.7552C21.0034 49.5575 20.6464 49.3927 20.2729 49.2609C19.6907 49.0632 19.2074 48.871 18.8229 48.6842C18.4384 48.4865 18.1528 48.2833 17.9661 48.0746C17.7794 47.8549 17.686 47.6023 17.686 47.3167C17.686 47.0311 17.8013 46.7839 18.032 46.5752C18.2627 46.3555 18.6087 46.2457 19.0701 46.2457C19.4216 46.2457 19.7346 46.3171 20.0092 46.4599C20.2839 46.5917 20.5255 46.7729 20.7342 47.0036C20.9539 47.2233 21.1407 47.4704 21.2944 47.7451L23.1399 46.7235C22.9421 46.3171 22.662 45.9271 22.2995 45.5536C21.948 45.1692 21.5032 44.8561 20.9649 44.6144C20.4376 44.3618 19.806 44.2355 19.0701 44.2355C18.3561 44.2355 17.708 44.3673 17.1258 44.6309C16.5546 44.8836 16.0987 45.2516 15.7582 45.7349C15.4287 46.2072 15.2639 46.7729 15.2639 47.432C15.2639 47.9812 15.3682 48.4536 15.577 48.849C15.7857 49.2335 16.0493 49.563 16.3678 49.8376C16.6864 50.1013 17.0214 50.3209 17.3729 50.4967C17.7354 50.6615 18.054 50.7933 18.3286 50.8921C18.8449 51.0899 19.2788 51.2766 19.6303 51.4524C19.9928 51.6171 20.2619 51.8094 20.4376 52.0291C20.6244 52.2487 20.7178 52.5398 20.7178 52.9023C20.7178 53.3197 20.5695 53.6493 20.2729 53.8909C19.9763 54.1326 19.5918 54.2534 19.1195 54.2534C18.7131 54.2534 18.3341 54.1656 17.9826 53.9898C17.6311 53.8141 17.307 53.5669 17.0104 53.2483C16.7248 52.9298 16.4612 52.5563 16.2196 52.1279ZM26.1154 52.1279L24.4348 53.3143C24.6874 53.8525 25.0389 54.3523 25.4893 54.8137C25.9396 55.275 26.4669 55.643 27.0711 55.9176C27.6862 56.1812 28.3453 56.3131 29.0483 56.3131C29.5756 56.3131 30.0754 56.2307 30.5477 56.0659C31.031 55.9121 31.4649 55.6869 31.8494 55.3903C32.2338 55.0828 32.5359 54.7093 32.7556 54.2699C32.9753 53.8305 33.0851 53.3307 33.0851 52.7705C33.0851 52.2762 33.0028 51.8423 32.838 51.4688C32.6842 51.0844 32.4645 50.7548 32.1789 50.4802C31.9043 50.1946 31.5912 49.953 31.2397 49.7552C30.8992 49.5575 30.5422 49.3927 30.1687 49.2609C29.5865 49.0632 29.1032 48.871 28.7188 48.6842C28.3343 48.4865 28.0487 48.2833 27.862 48.0746C27.6752 47.8549 27.5818 47.6023 27.5818 47.3167C27.5818 47.0311 27.6972 46.7839 27.9279 46.5752C28.1585 46.3555 28.5046 46.2457 28.9659 46.2457C29.3174 46.2457 29.6305 46.3171 29.9051 46.4599C30.1797 46.5917 30.4214 46.7729 30.6301 47.0036C30.8498 47.2233 31.0365 47.4704 31.1903 47.7451L33.0357 46.7235C32.838 46.3171 32.5579 45.9271 32.1954 45.5536C31.8439 45.1692 31.399 44.8561 30.8608 44.6144C30.3335 44.3618 29.7019 44.2355 28.9659 44.2355C28.2519 44.2355 27.6038 44.3673 27.0216 44.6309C26.4504 44.8836 25.9946 45.2516 25.654 45.7349C25.3245 46.2072 25.1597 46.7729 25.1597 47.432C25.1597 47.9812 25.2641 48.4536 25.4728 48.849C25.6815 49.2335 25.9451 49.563 26.2637 49.8376C26.5822 50.1013 26.9173 50.3209 27.2688 50.4967C27.6313 50.6615 27.9498 50.7933 28.2244 50.8921C28.7407 51.0899 29.1746 51.2766 29.5261 51.4524C29.8886 51.6171 30.1577 51.8094 30.3335 52.0291C30.5202 52.2487 30.6136 52.5398 30.6136 52.9023C30.6136 53.3197 30.4653 53.6493 30.1687 53.8909C29.8721 54.1326 29.4877 54.2534 29.0153 54.2534C28.6089 54.2534 28.2299 54.1656 27.8784 53.9898C27.5269 53.8141 27.2029 53.5669 26.9063 53.2483C26.6207 52.9298 26.3571 52.5563 26.1154 52.1279Z" fill="#00377D"/>
</svg>
