<svg width="35" height="35" viewBox="0 0 35 35" fill="none" xmlns="http://www.w3.org/2000/svg">
<path d="M13.125 30.625V19.8333C13.125 19.0166 13.125 18.6082 13.2839 18.2963C13.4238 18.0219 13.6469 17.7988 13.9213 17.6589C14.2332 17.5 14.6416 17.5 15.4583 17.5H19.5417C20.3584 17.5 20.7668 17.5 21.0787 17.6589C21.3531 17.7988 21.5762 18.0219 21.716 18.2963C21.875 18.6082 21.875 19.0166 21.875 19.8333V30.625M2.91666 13.8542L16.1 3.96667C16.602 3.59013 16.8531 3.40187 17.1288 3.32929C17.3721 3.26524 17.6279 3.26524 17.8712 3.32929C18.1469 3.40187 18.398 3.59013 18.9 3.96667L32.0833 13.8542M5.83333 11.6667V25.9583C5.83333 27.5918 5.83333 28.4086 6.15123 29.0325C6.43086 29.5813 6.87705 30.0275 7.42586 30.3071C8.04977 30.625 8.86651 30.625 10.5 30.625H24.5C26.1335 30.625 26.9502 30.625 27.5741 30.3071C28.1229 30.0275 28.5691 29.5813 28.8488 29.0325C29.1667 28.4086 29.1667 27.5918 29.1667 25.9583V11.6667L20.3 5.01667C19.2959 4.2636 18.7939 3.88707 18.2425 3.74192C17.7558 3.6138 17.2442 3.6138 16.7575 3.74192C16.2061 3.88707 15.7041 4.2636 14.7 5.01667L5.83333 11.6667Z" stroke="#00377D" stroke-width="2" stroke-linecap="round" stroke-linejoin="round"/>
</svg>
