<svg width="35" height="35" viewBox="0 0 35 35" fill="none" xmlns="http://www.w3.org/2000/svg">
<path d="M13.1248 30.625V19.8333C13.1248 19.0166 13.1248 18.6082 13.2837 18.2963C13.4236 18.0219 13.6467 17.7988 13.9211 17.6589C14.233 17.5 14.6414 17.5 15.4581 17.5H19.5415C20.3582 17.5 20.7666 17.5 21.0785 17.6589C21.3529 17.7988 21.576 18.0219 21.7158 18.2963C21.8748 18.6082 21.8748 19.0166 21.8748 19.8333V30.625M2.9165 13.8542L16.0998 3.96667C16.6018 3.59013 16.8529 3.40187 17.1286 3.32929C17.3719 3.26524 17.6277 3.26524 17.871 3.32929C18.1467 3.40187 18.3978 3.59013 18.8998 3.96667L32.0831 13.8542M5.83317 11.6667V25.9583C5.83317 27.5918 5.83317 28.4086 6.15107 29.0325C6.4307 29.5813 6.87689 30.0275 7.4257 30.3071C8.04961 30.625 8.86635 30.625 10.4998 30.625H24.4998C26.1333 30.625 26.95 30.625 27.5739 30.3071C28.1227 30.0275 28.5689 29.5813 28.8486 29.0325C29.1665 28.4086 29.1665 27.5918 29.1665 25.9583V11.6667L20.2998 5.01667C19.2957 4.2636 18.7937 3.88707 18.2423 3.74192C17.7556 3.6138 17.244 3.6138 16.7573 3.74192C16.2059 3.88707 15.7039 4.2636 14.6998 5.01667L5.83317 11.6667Z" stroke="black" stroke-width="2" stroke-linecap="round" stroke-linejoin="round"/>
</svg>
