<svg width="35" height="35" viewBox="0 0 35 35" fill="none" xmlns="http://www.w3.org/2000/svg">
<path d="M17.5 23.3333V17.5M17.5 11.6666H17.5146M4.375 11.5812V23.4187C4.375 23.9184 4.375 24.1682 4.44863 24.391C4.51375 24.5882 4.62023 24.7691 4.76092 24.9219C4.91996 25.0944 5.13836 25.2158 5.57517 25.4584L16.3668 31.4538C16.7804 31.6835 16.9872 31.7985 17.2062 31.8435C17.4 31.8834 17.6 31.8834 17.7938 31.8435C18.0128 31.7985 18.2196 31.6835 18.6332 31.4538L29.4249 25.4584C29.8616 25.2158 30.0801 25.0944 30.2391 24.9219C30.3797 24.7691 30.4863 24.5882 30.5514 24.391C30.625 24.1682 30.625 23.9184 30.625 23.4187V11.5812C30.625 11.0816 30.625 10.8318 30.5514 10.6089C30.4863 10.4118 30.3797 10.2308 30.2391 10.0781C30.0801 9.90552 29.8616 9.78418 29.4249 9.54152L18.6332 3.54618C18.2196 3.31641 18.0128 3.20153 17.7938 3.15648C17.6 3.11662 17.4 3.11662 17.2062 3.15648C16.9872 3.20153 16.7804 3.31641 16.3668 3.54618L5.57517 9.54152C5.13836 9.78418 4.91996 9.90552 4.76092 10.0781C4.62023 10.2308 4.51375 10.4118 4.44863 10.6089C4.375 10.8318 4.375 11.0816 4.375 11.5812Z" stroke="#00377D" stroke-width="2" stroke-linecap="round" stroke-linejoin="round"/>
</svg>
