<svg width="34" height="34" viewBox="0 0 34 34" fill="none" xmlns="http://www.w3.org/2000/svg">
<path d="M19.4705 3.73085L30.1352 10.6629C30.5121 10.9078 30.7005 11.0303 30.837 11.1937C30.9578 11.3383 31.0486 11.5056 31.104 11.6857C31.1666 11.8892 31.1666 12.1139 31.1666 12.5634V22.95C31.1666 25.3302 31.1666 26.5203 30.7034 27.4294C30.2959 28.2291 29.6457 28.8793 28.846 29.2867C27.9369 29.75 26.7468 29.75 24.3666 29.75H9.63325C7.25303 29.75 6.06292 29.75 5.15379 29.2867C4.3541 28.8793 3.70394 28.2291 3.29647 27.4294C2.83325 26.5203 2.83325 25.3302 2.83325 22.95V12.5634C2.83325 12.1139 2.83325 11.8892 2.89583 11.6857C2.95122 11.5056 3.04199 11.3383 3.16284 11.1937C3.29935 11.0303 3.48777 10.9079 3.86461 10.6629L14.5293 3.73086M19.4705 3.73085C18.5763 3.14958 18.1291 2.85895 17.6474 2.74587C17.2215 2.64591 16.7783 2.64591 16.3525 2.74587C15.8707 2.85895 15.4236 3.14958 14.5293 3.73086M19.4705 3.73085L28.2428 9.43281C29.2172 10.0662 29.7045 10.3829 29.8732 10.7845C30.0207 11.1355 30.0207 11.5311 29.8732 11.8821C29.7045 12.2837 29.2172 12.6004 28.2428 13.2338L19.4705 18.9357C18.5763 19.517 18.1291 19.8076 17.6474 19.9207C17.2215 20.0207 16.7783 20.0207 16.3525 19.9207C15.8707 19.8076 15.4236 19.517 14.5293 18.9357L5.75706 13.2338C4.7826 12.6004 4.29538 12.2837 4.12663 11.8821C3.97916 11.5311 3.97916 11.1355 4.12663 10.7845C4.29538 10.3829 4.7826 10.0662 5.75706 9.43282L14.5293 3.73086M30.4583 26.9166L21.0476 18.4166M12.9522 18.4166L3.54159 26.9166" stroke="#00377D" stroke-width="2" stroke-linecap="round" stroke-linejoin="round"/>
</svg>
