<svg width="35" height="35" viewBox="0 0 35 35" fill="none" xmlns="http://www.w3.org/2000/svg">
<path d="M17.5001 2.91663C19.4151 2.91663 21.3116 3.29384 23.0809 4.02673C24.8503 4.75959 26.4579 5.8338 27.8121 7.18798C29.1663 8.54218 30.2405 10.1499 30.9734 11.9192C31.7061 13.6885 32.0834 15.5849 32.0834 17.5M17.5001 2.91663V17.5M17.5001 2.91663C9.44595 2.91663 2.91675 9.44583 2.91675 17.5C2.91675 25.554 9.44595 32.0833 17.5001 32.0833C25.5541 32.0833 32.0834 25.5542 32.0834 17.5M17.5001 2.91663C25.5541 2.91663 32.0834 9.44583 32.0834 17.5M32.0834 17.5H17.5001M32.0834 17.5C32.0834 19.8013 31.5388 22.0701 30.494 24.1206C29.4491 26.1712 27.9339 27.9454 26.072 29.2982L17.5001 17.5" stroke="#00377D" stroke-width="2" stroke-linecap="round" stroke-linejoin="round"/>
</svg>
