<svg width="39" height="39" viewBox="0 0 39 39" fill="none" xmlns="http://www.w3.org/2000/svg">
<path d="M13.612 25.3764L4.41968 34.5688M19.0034 10.7929L16.4668 13.3293C16.26 13.5362 16.1565 13.6397 16.0387 13.7219C15.9341 13.7949 15.8212 13.8552 15.7024 13.9017C15.5686 13.9543 15.4252 13.9829 15.1383 14.0403L9.18353 15.2313C7.63605 15.5408 6.8623 15.6955 6.50031 16.1035C6.18495 16.4589 6.04095 16.9345 6.10621 17.4052C6.1811 17.9454 6.73905 18.5033 7.85495 19.6194L19.3693 31.1337C20.4851 32.2495 21.0432 32.8075 21.5833 32.8824C22.0541 32.9476 22.5297 32.8036 22.8852 32.4882C23.293 32.1263 23.4477 31.3525 23.7572 29.805L24.9483 23.8502C25.0056 23.5634 25.0343 23.4199 25.0868 23.2861C25.1333 23.1674 25.1937 23.0546 25.2668 22.95C25.3489 22.832 25.4523 22.7287 25.6594 22.5217L28.1957 19.9853C28.3279 19.853 28.3942 19.7868 28.4668 19.7291C28.5313 19.6779 28.5997 19.6316 28.6715 19.5906C28.7521 19.5444 28.838 19.5077 29.0099 19.4339L33.0633 17.6968C34.2459 17.1899 34.8371 16.9367 35.1056 16.5272C35.3406 16.1691 35.4246 15.7328 35.3394 15.3131C35.2421 14.8331 34.7873 14.3783 33.8776 13.4686L25.52 5.11097C24.6103 4.20125 24.1554 3.74639 23.6756 3.64911C23.2558 3.56401 22.8195 3.64805 22.4615 3.88291C22.052 4.15149 21.7985 4.74274 21.2918 5.92526L19.5547 9.97857C19.4809 10.1505 19.4441 10.2365 19.398 10.3171C19.3571 10.3888 19.3108 10.4572 19.2595 10.5217C19.2017 10.5944 19.1356 10.6606 19.0034 10.7929Z" stroke="#00377D" stroke-width="2" stroke-linecap="round" stroke-linejoin="round"/>
</svg>
